<svg width="160" height="160" viewBox="0 0 160 160" fill="none" xmlns="http://www.w3.org/2000/svg">
<rect width="160" height="160" rx="80" fill="#EBEBEB"/>
<path d="M105.28 44.272H67.3461C64.6725 44.2756 62.1092 45.3391 60.2193 47.229C58.3285 49.1198 57.265 51.6823 57.2614 54.3559V57.2612H61.5599L61.5608 54.3559C61.5608 52.8214 62.1703 51.35 63.2552 50.2652C64.3401 49.1803 65.8114 48.5708 67.3459 48.5708H105.28C106.814 48.5708 108.286 49.1803 109.37 50.2652C110.455 51.3501 111.065 52.8214 111.065 54.3559V92.2897C111.065 93.8242 110.455 95.2956 109.37 96.3804C108.286 97.4652 106.814 98.0748 105.28 98.0748H102.374V102.374H105.267C107.94 102.371 110.503 101.307 112.393 99.4163C114.284 97.5264 115.348 94.9631 115.35 92.2895V54.3557C115.348 51.6848 114.286 49.1232 112.398 47.2334C110.511 45.3435 107.951 44.2782 105.28 44.2719L105.28 44.272Z" fill="#6C757D"/>
<path d="M92.2895 57.2601H54.3557C51.6821 57.2637 49.1195 58.3272 47.2289 60.218C45.339 62.1079 44.2755 64.6713 44.2719 67.3449V105.279C44.2754 107.952 45.339 110.515 47.2289 112.406C49.1196 114.295 51.6821 115.359 54.3557 115.363H92.2895C94.9631 115.359 97.5263 114.295 99.4163 112.406C101.307 110.515 102.371 107.952 102.374 105.279V67.3449C102.371 64.6713 101.307 62.108 99.4163 60.218C97.5264 58.3273 94.9631 57.2638 92.2895 57.2601V57.2601ZM98.0748 102.373V105.266C98.0748 106.8 97.4652 108.272 96.3803 109.356C95.2955 110.441 93.8241 111.051 92.2897 111.051H54.3559C52.8214 111.051 51.35 110.441 50.2652 109.356C49.1803 108.272 48.5708 106.8 48.5708 105.266V67.3456C48.5708 65.8111 49.1803 64.3397 50.2652 63.2549C51.3501 62.17 52.8214 61.5605 54.3559 61.5605H92.2897C93.8242 61.5605 95.2956 62.17 96.3803 63.2549C97.4652 64.3398 98.0748 65.8111 98.0748 67.3456V102.375V102.373Z" fill="#6C757D"/>
<path d="M57.1808 70.0252H89.4645V74.3238H57.1808V70.0252Z" fill="#6C757D"/>
<path d="M57.1808 80.8001H89.4645V85.0987H57.1808V80.8001Z" fill="#6C757D"/>
<path d="M57.1808 91.5591H76.5533V95.8577H57.1808V91.5591Z" fill="#6C757D"/>
</svg>
